<?xml version="1.0" standalone="no"?>
<!DOCTYPE svg PUBLIC "-//W3C//DTD SVG 20010904//EN"
 "http://www.w3.org/TR/2001/REC-SVG-20010904/DTD/svg10.dtd">
<svg version="1.0" xmlns="http://www.w3.org/2000/svg"
 width="196.000000pt" height="117.000000pt" viewBox="0 0 196.000000 117.000000"
 preserveAspectRatio="xMidYMid meet">

<g transform="translate(0.000000,117.000000) scale(0.100000,-0.100000)"
fill="#000000" stroke="none">
<path d="M672 1138 c-17 -17 -17 -1059 0 -1076 9 -9 158 -12 610 -12 580 0
598 1 608 19 14 27 14 1035 0 1062 -10 18 -28 19 -608 19 -452 0 -601 -3 -610
-12z m218 -468 c0 -18 -7 -20 -60 -20 l-60 0 0 -40 0 -40 60 0 c54 0 60 -2 60
-20 0 -19 -5 -21 -77 -18 l-78 3 -3 64 c-2 35 -1 70 2 77 4 10 27 14 81 14 68
0 75 -2 75 -20z m454 4 c3 -9 6 -45 6 -80 0 -57 -2 -64 -20 -64 -15 0 -20 7
-20 25 0 23 -4 25 -40 25 -36 0 -40 -2 -40 -25 0 -20 -5 -25 -25 -25 -24 0
-25 3 -25 61 0 91 7 99 89 99 54 0 70 -4 75 -16z m369 -15 l24 -31 22 31 c15
20 31 31 47 31 23 0 24 -2 24 -80 0 -73 -2 -80 -20 -80 -17 0 -20 7 -20 51 l0
51 -27 -32 -27 -33 -22 27 c-13 14 -26 26 -29 26 -3 0 -5 -20 -5 -45 0 -38 -3
-45 -20 -45 -18 0 -20 7 -20 80 0 78 1 80 24 80 16 0 34 -12 49 -31z"/>
<path d="M1230 635 c0 -11 11 -15 40 -15 29 0 40 4 40 15 0 11 -11 15 -40 15
-29 0 -40 -4 -40 -15z"/>
<path d="M71 1064 c-59 -25 -60 -27 -40 -102 59 -209 160 -467 199 -503 58
-55 195 -43 237 20 54 81 173 429 173 508 0 74 -64 109 -155 83 -51 -14 -43 6
-100 -232 -19 -80 -35 -155 -35 -166 0 -39 -18 -31 -24 11 -9 55 -85 314 -102
348 -23 45 -91 60 -153 33z"/>
</g>
</svg>
